<mxfile host="app.diagrams.net" modified="2024-06-24T07:21:18.510Z" agent="Mozilla/5.0 (Windows NT 10.0; Win64; x64) AppleWebKit/537.36 (KHTML, like Gecko) Chrome/126.0.0.0 Safari/537.36" etag="p1mxyO9qOyXmLWDjIrYw" version="24.6.2" type="github">
  <diagram id="C5RBs43oDa-KdzZeNtuy" name="Page-1">
    <mxGraphModel dx="1120" dy="460" grid="1" gridSize="10" guides="1" tooltips="1" connect="1" arrows="1" fold="1" page="1" pageScale="1" pageWidth="827" pageHeight="1169" math="0" shadow="0">
      <root>
        <mxCell id="WIyWlLk6GJQsqaUBKTNV-0" />
        <mxCell id="WIyWlLk6GJQsqaUBKTNV-1" parent="WIyWlLk6GJQsqaUBKTNV-0" />
        <mxCell id="Vn8qk5GVmVZZWzT2wANc-3" value="" style="edgeStyle=orthogonalEdgeStyle;rounded=0;orthogonalLoop=1;jettySize=auto;html=1;" edge="1" parent="WIyWlLk6GJQsqaUBKTNV-1" source="Vn8qk5GVmVZZWzT2wANc-1" target="Vn8qk5GVmVZZWzT2wANc-2">
          <mxGeometry relative="1" as="geometry" />
        </mxCell>
        <mxCell id="Vn8qk5GVmVZZWzT2wANc-1" value="1" style="ellipse;whiteSpace=wrap;html=1;aspect=fixed;" vertex="1" parent="WIyWlLk6GJQsqaUBKTNV-1">
          <mxGeometry x="360" y="40" width="70" height="70" as="geometry" />
        </mxCell>
        <mxCell id="Vn8qk5GVmVZZWzT2wANc-5" value="" style="edgeStyle=orthogonalEdgeStyle;rounded=0;orthogonalLoop=1;jettySize=auto;html=1;" edge="1" parent="WIyWlLk6GJQsqaUBKTNV-1" source="Vn8qk5GVmVZZWzT2wANc-2" target="Vn8qk5GVmVZZWzT2wANc-4">
          <mxGeometry relative="1" as="geometry" />
        </mxCell>
        <mxCell id="Vn8qk5GVmVZZWzT2wANc-7" value="" style="edgeStyle=orthogonalEdgeStyle;rounded=0;orthogonalLoop=1;jettySize=auto;html=1;" edge="1" parent="WIyWlLk6GJQsqaUBKTNV-1" source="Vn8qk5GVmVZZWzT2wANc-2" target="Vn8qk5GVmVZZWzT2wANc-6">
          <mxGeometry relative="1" as="geometry" />
        </mxCell>
        <mxCell id="Vn8qk5GVmVZZWzT2wANc-2" value="2(if)" style="rhombus;whiteSpace=wrap;html=1;" vertex="1" parent="WIyWlLk6GJQsqaUBKTNV-1">
          <mxGeometry x="355" y="160" width="80" height="80" as="geometry" />
        </mxCell>
        <mxCell id="Vn8qk5GVmVZZWzT2wANc-9" value="" style="edgeStyle=orthogonalEdgeStyle;rounded=0;orthogonalLoop=1;jettySize=auto;html=1;" edge="1" parent="WIyWlLk6GJQsqaUBKTNV-1" source="Vn8qk5GVmVZZWzT2wANc-4" target="Vn8qk5GVmVZZWzT2wANc-8">
          <mxGeometry relative="1" as="geometry" />
        </mxCell>
        <mxCell id="Vn8qk5GVmVZZWzT2wANc-4" value="4(true)" style="ellipse;whiteSpace=wrap;html=1;" vertex="1" parent="WIyWlLk6GJQsqaUBKTNV-1">
          <mxGeometry x="470" y="260" width="65" height="50" as="geometry" />
        </mxCell>
        <mxCell id="Vn8qk5GVmVZZWzT2wANc-45" style="edgeStyle=orthogonalEdgeStyle;rounded=0;orthogonalLoop=1;jettySize=auto;html=1;entryX=0.25;entryY=0;entryDx=0;entryDy=0;" edge="1" parent="WIyWlLk6GJQsqaUBKTNV-1" source="Vn8qk5GVmVZZWzT2wANc-6" target="Vn8qk5GVmVZZWzT2wANc-42">
          <mxGeometry relative="1" as="geometry" />
        </mxCell>
        <mxCell id="Vn8qk5GVmVZZWzT2wANc-6" value="3(false)" style="ellipse;whiteSpace=wrap;html=1;" vertex="1" parent="WIyWlLk6GJQsqaUBKTNV-1">
          <mxGeometry x="250" y="260" width="65" height="50" as="geometry" />
        </mxCell>
        <mxCell id="Vn8qk5GVmVZZWzT2wANc-11" value="" style="edgeStyle=orthogonalEdgeStyle;rounded=0;orthogonalLoop=1;jettySize=auto;html=1;" edge="1" parent="WIyWlLk6GJQsqaUBKTNV-1" source="Vn8qk5GVmVZZWzT2wANc-8" target="Vn8qk5GVmVZZWzT2wANc-10">
          <mxGeometry relative="1" as="geometry" />
        </mxCell>
        <mxCell id="Vn8qk5GVmVZZWzT2wANc-8" value="5" style="ellipse;whiteSpace=wrap;html=1;" vertex="1" parent="WIyWlLk6GJQsqaUBKTNV-1">
          <mxGeometry x="462.5" y="340" width="80" height="80" as="geometry" />
        </mxCell>
        <mxCell id="Vn8qk5GVmVZZWzT2wANc-13" value="" style="edgeStyle=orthogonalEdgeStyle;rounded=0;orthogonalLoop=1;jettySize=auto;html=1;" edge="1" parent="WIyWlLk6GJQsqaUBKTNV-1" source="Vn8qk5GVmVZZWzT2wANc-10" target="Vn8qk5GVmVZZWzT2wANc-12">
          <mxGeometry relative="1" as="geometry" />
        </mxCell>
        <mxCell id="Vn8qk5GVmVZZWzT2wANc-15" value="" style="edgeStyle=orthogonalEdgeStyle;rounded=0;orthogonalLoop=1;jettySize=auto;html=1;" edge="1" parent="WIyWlLk6GJQsqaUBKTNV-1" source="Vn8qk5GVmVZZWzT2wANc-10" target="Vn8qk5GVmVZZWzT2wANc-14">
          <mxGeometry relative="1" as="geometry" />
        </mxCell>
        <mxCell id="Vn8qk5GVmVZZWzT2wANc-31" value="" style="edgeStyle=orthogonalEdgeStyle;rounded=0;orthogonalLoop=1;jettySize=auto;html=1;" edge="1" parent="WIyWlLk6GJQsqaUBKTNV-1" source="Vn8qk5GVmVZZWzT2wANc-10" target="Vn8qk5GVmVZZWzT2wANc-30">
          <mxGeometry relative="1" as="geometry" />
        </mxCell>
        <mxCell id="Vn8qk5GVmVZZWzT2wANc-10" value="6&lt;div&gt;(allltems.size())&lt;/div&gt;" style="ellipse;whiteSpace=wrap;html=1;" vertex="1" parent="WIyWlLk6GJQsqaUBKTNV-1">
          <mxGeometry x="462.5" y="460" width="80" height="80" as="geometry" />
        </mxCell>
        <mxCell id="Vn8qk5GVmVZZWzT2wANc-12" value="6(i++)" style="ellipse;whiteSpace=wrap;html=1;" vertex="1" parent="WIyWlLk6GJQsqaUBKTNV-1">
          <mxGeometry x="622.5" y="460" width="80" height="80" as="geometry" />
        </mxCell>
        <mxCell id="Vn8qk5GVmVZZWzT2wANc-17" value="" style="edgeStyle=orthogonalEdgeStyle;rounded=0;orthogonalLoop=1;jettySize=auto;html=1;" edge="1" parent="WIyWlLk6GJQsqaUBKTNV-1" source="Vn8qk5GVmVZZWzT2wANc-14" target="Vn8qk5GVmVZZWzT2wANc-16">
          <mxGeometry relative="1" as="geometry" />
        </mxCell>
        <mxCell id="Vn8qk5GVmVZZWzT2wANc-14" value="7" style="ellipse;whiteSpace=wrap;html=1;" vertex="1" parent="WIyWlLk6GJQsqaUBKTNV-1">
          <mxGeometry x="467.5" y="562" width="67.5" height="45" as="geometry" />
        </mxCell>
        <mxCell id="Vn8qk5GVmVZZWzT2wANc-19" value="" style="edgeStyle=orthogonalEdgeStyle;rounded=0;orthogonalLoop=1;jettySize=auto;html=1;" edge="1" parent="WIyWlLk6GJQsqaUBKTNV-1" source="Vn8qk5GVmVZZWzT2wANc-16" target="Vn8qk5GVmVZZWzT2wANc-18">
          <mxGeometry relative="1" as="geometry" />
        </mxCell>
        <mxCell id="Vn8qk5GVmVZZWzT2wANc-21" value="" style="edgeStyle=orthogonalEdgeStyle;rounded=0;orthogonalLoop=1;jettySize=auto;html=1;" edge="1" parent="WIyWlLk6GJQsqaUBKTNV-1" source="Vn8qk5GVmVZZWzT2wANc-16" target="Vn8qk5GVmVZZWzT2wANc-20">
          <mxGeometry relative="1" as="geometry" />
        </mxCell>
        <mxCell id="Vn8qk5GVmVZZWzT2wANc-16" value="8(if)" style="ellipse;whiteSpace=wrap;html=1;" vertex="1" parent="WIyWlLk6GJQsqaUBKTNV-1">
          <mxGeometry x="467.5" y="640" width="67.5" height="45" as="geometry" />
        </mxCell>
        <mxCell id="Vn8qk5GVmVZZWzT2wANc-23" value="" style="edgeStyle=orthogonalEdgeStyle;rounded=0;orthogonalLoop=1;jettySize=auto;html=1;entryX=1.011;entryY=0.267;entryDx=0;entryDy=0;entryPerimeter=0;" edge="1" parent="WIyWlLk6GJQsqaUBKTNV-1" source="Vn8qk5GVmVZZWzT2wANc-18" target="Vn8qk5GVmVZZWzT2wANc-20">
          <mxGeometry relative="1" as="geometry">
            <mxPoint x="650" y="910" as="targetPoint" />
            <Array as="points">
              <mxPoint x="650" y="733" />
              <mxPoint x="536" y="733" />
            </Array>
          </mxGeometry>
        </mxCell>
        <mxCell id="Vn8qk5GVmVZZWzT2wANc-18" value="9" style="ellipse;whiteSpace=wrap;html=1;" vertex="1" parent="WIyWlLk6GJQsqaUBKTNV-1">
          <mxGeometry x="616.25" y="640" width="67.5" height="45" as="geometry" />
        </mxCell>
        <mxCell id="Vn8qk5GVmVZZWzT2wANc-25" value="" style="edgeStyle=orthogonalEdgeStyle;rounded=0;orthogonalLoop=1;jettySize=auto;html=1;" edge="1" parent="WIyWlLk6GJQsqaUBKTNV-1" source="Vn8qk5GVmVZZWzT2wANc-20" target="Vn8qk5GVmVZZWzT2wANc-24">
          <mxGeometry relative="1" as="geometry" />
        </mxCell>
        <mxCell id="Vn8qk5GVmVZZWzT2wANc-20" value="10" style="ellipse;whiteSpace=wrap;html=1;" vertex="1" parent="WIyWlLk6GJQsqaUBKTNV-1">
          <mxGeometry x="467.5" y="710" width="67.5" height="45" as="geometry" />
        </mxCell>
        <mxCell id="Vn8qk5GVmVZZWzT2wANc-27" value="" style="edgeStyle=orthogonalEdgeStyle;rounded=0;orthogonalLoop=1;jettySize=auto;html=1;" edge="1" parent="WIyWlLk6GJQsqaUBKTNV-1" source="Vn8qk5GVmVZZWzT2wANc-24" target="Vn8qk5GVmVZZWzT2wANc-26">
          <mxGeometry relative="1" as="geometry" />
        </mxCell>
        <mxCell id="Vn8qk5GVmVZZWzT2wANc-48" value="" style="edgeStyle=orthogonalEdgeStyle;rounded=0;orthogonalLoop=1;jettySize=auto;html=1;" edge="1" parent="WIyWlLk6GJQsqaUBKTNV-1" source="Vn8qk5GVmVZZWzT2wANc-24" target="Vn8qk5GVmVZZWzT2wANc-47">
          <mxGeometry relative="1" as="geometry" />
        </mxCell>
        <mxCell id="Vn8qk5GVmVZZWzT2wANc-24" value="11(if)" style="ellipse;whiteSpace=wrap;html=1;" vertex="1" parent="WIyWlLk6GJQsqaUBKTNV-1">
          <mxGeometry x="467.5" y="790" width="67.5" height="45" as="geometry" />
        </mxCell>
        <mxCell id="Vn8qk5GVmVZZWzT2wANc-29" value="" style="edgeStyle=orthogonalEdgeStyle;rounded=0;orthogonalLoop=1;jettySize=auto;html=1;" edge="1" parent="WIyWlLk6GJQsqaUBKTNV-1" source="Vn8qk5GVmVZZWzT2wANc-26" target="Vn8qk5GVmVZZWzT2wANc-28">
          <mxGeometry relative="1" as="geometry" />
        </mxCell>
        <mxCell id="Vn8qk5GVmVZZWzT2wANc-26" value="27(false)" style="ellipse;whiteSpace=wrap;html=1;" vertex="1" parent="WIyWlLk6GJQsqaUBKTNV-1">
          <mxGeometry x="346" y="790" width="67.5" height="45" as="geometry" />
        </mxCell>
        <mxCell id="Vn8qk5GVmVZZWzT2wANc-46" style="edgeStyle=orthogonalEdgeStyle;rounded=0;orthogonalLoop=1;jettySize=auto;html=1;exitX=0;exitY=0.5;exitDx=0;exitDy=0;entryX=0.75;entryY=1;entryDx=0;entryDy=0;" edge="1" parent="WIyWlLk6GJQsqaUBKTNV-1" source="Vn8qk5GVmVZZWzT2wANc-28" target="Vn8qk5GVmVZZWzT2wANc-42">
          <mxGeometry relative="1" as="geometry" />
        </mxCell>
        <mxCell id="Vn8qk5GVmVZZWzT2wANc-28" value="28 &amp;amp; 29" style="ellipse;whiteSpace=wrap;html=1;" vertex="1" parent="WIyWlLk6GJQsqaUBKTNV-1">
          <mxGeometry x="235" y="790" width="67.5" height="45" as="geometry" />
        </mxCell>
        <mxCell id="Vn8qk5GVmVZZWzT2wANc-33" value="" style="edgeStyle=orthogonalEdgeStyle;rounded=0;orthogonalLoop=1;jettySize=auto;html=1;" edge="1" parent="WIyWlLk6GJQsqaUBKTNV-1" source="Vn8qk5GVmVZZWzT2wANc-30" target="Vn8qk5GVmVZZWzT2wANc-32">
          <mxGeometry relative="1" as="geometry" />
        </mxCell>
        <mxCell id="Vn8qk5GVmVZZWzT2wANc-39" value="" style="edgeStyle=orthogonalEdgeStyle;rounded=0;orthogonalLoop=1;jettySize=auto;html=1;" edge="1" parent="WIyWlLk6GJQsqaUBKTNV-1" source="Vn8qk5GVmVZZWzT2wANc-30" target="Vn8qk5GVmVZZWzT2wANc-38">
          <mxGeometry relative="1" as="geometry" />
        </mxCell>
        <mxCell id="Vn8qk5GVmVZZWzT2wANc-30" value="34(if)" style="ellipse;whiteSpace=wrap;html=1;" vertex="1" parent="WIyWlLk6GJQsqaUBKTNV-1">
          <mxGeometry x="302.5" y="460" width="80" height="80" as="geometry" />
        </mxCell>
        <mxCell id="Vn8qk5GVmVZZWzT2wANc-35" value="" style="edgeStyle=orthogonalEdgeStyle;rounded=0;orthogonalLoop=1;jettySize=auto;html=1;" edge="1" parent="WIyWlLk6GJQsqaUBKTNV-1" source="Vn8qk5GVmVZZWzT2wANc-32" target="Vn8qk5GVmVZZWzT2wANc-34">
          <mxGeometry relative="1" as="geometry" />
        </mxCell>
        <mxCell id="Vn8qk5GVmVZZWzT2wANc-32" value="35" style="ellipse;whiteSpace=wrap;html=1;" vertex="1" parent="WIyWlLk6GJQsqaUBKTNV-1">
          <mxGeometry x="311.25" y="390" width="62.5" height="40" as="geometry" />
        </mxCell>
        <mxCell id="Vn8qk5GVmVZZWzT2wANc-44" style="edgeStyle=orthogonalEdgeStyle;rounded=0;orthogonalLoop=1;jettySize=auto;html=1;" edge="1" parent="WIyWlLk6GJQsqaUBKTNV-1" source="Vn8qk5GVmVZZWzT2wANc-34">
          <mxGeometry relative="1" as="geometry">
            <mxPoint x="120" y="630" as="targetPoint" />
          </mxGeometry>
        </mxCell>
        <mxCell id="Vn8qk5GVmVZZWzT2wANc-34" value="36" style="ellipse;whiteSpace=wrap;html=1;" vertex="1" parent="WIyWlLk6GJQsqaUBKTNV-1">
          <mxGeometry x="230" y="390" width="62.5" height="40" as="geometry" />
        </mxCell>
        <mxCell id="Vn8qk5GVmVZZWzT2wANc-41" value="" style="edgeStyle=orthogonalEdgeStyle;rounded=0;orthogonalLoop=1;jettySize=auto;html=1;" edge="1" parent="WIyWlLk6GJQsqaUBKTNV-1" source="Vn8qk5GVmVZZWzT2wANc-38" target="Vn8qk5GVmVZZWzT2wANc-40">
          <mxGeometry relative="1" as="geometry" />
        </mxCell>
        <mxCell id="Vn8qk5GVmVZZWzT2wANc-38" value="37" style="ellipse;whiteSpace=wrap;html=1;" vertex="1" parent="WIyWlLk6GJQsqaUBKTNV-1">
          <mxGeometry x="313.75" y="570" width="57.5" height="40" as="geometry" />
        </mxCell>
        <mxCell id="Vn8qk5GVmVZZWzT2wANc-43" value="" style="edgeStyle=orthogonalEdgeStyle;rounded=0;orthogonalLoop=1;jettySize=auto;html=1;" edge="1" parent="WIyWlLk6GJQsqaUBKTNV-1" source="Vn8qk5GVmVZZWzT2wANc-40" target="Vn8qk5GVmVZZWzT2wANc-42">
          <mxGeometry relative="1" as="geometry" />
        </mxCell>
        <mxCell id="Vn8qk5GVmVZZWzT2wANc-40" value="38" style="ellipse;whiteSpace=wrap;html=1;" vertex="1" parent="WIyWlLk6GJQsqaUBKTNV-1">
          <mxGeometry x="313.75" y="642.5" width="57.5" height="40" as="geometry" />
        </mxCell>
        <mxCell id="Vn8qk5GVmVZZWzT2wANc-42" value="40(end)" style="whiteSpace=wrap;html=1;" vertex="1" parent="WIyWlLk6GJQsqaUBKTNV-1">
          <mxGeometry x="60" y="632.5" width="75" height="60" as="geometry" />
        </mxCell>
        <mxCell id="Vn8qk5GVmVZZWzT2wANc-50" value="" style="edgeStyle=orthogonalEdgeStyle;rounded=0;orthogonalLoop=1;jettySize=auto;html=1;" edge="1" parent="WIyWlLk6GJQsqaUBKTNV-1" source="Vn8qk5GVmVZZWzT2wANc-47" target="Vn8qk5GVmVZZWzT2wANc-49">
          <mxGeometry relative="1" as="geometry" />
        </mxCell>
        <mxCell id="Vn8qk5GVmVZZWzT2wANc-47" value="12 &amp;amp; 13&lt;div&gt;(true)&lt;/div&gt;" style="ellipse;whiteSpace=wrap;html=1;" vertex="1" parent="WIyWlLk6GJQsqaUBKTNV-1">
          <mxGeometry x="402.5" y="880" width="67.5" height="45" as="geometry" />
        </mxCell>
        <mxCell id="Vn8qk5GVmVZZWzT2wANc-52" value="" style="edgeStyle=orthogonalEdgeStyle;rounded=0;orthogonalLoop=1;jettySize=auto;html=1;" edge="1" parent="WIyWlLk6GJQsqaUBKTNV-1" source="Vn8qk5GVmVZZWzT2wANc-49" target="Vn8qk5GVmVZZWzT2wANc-51">
          <mxGeometry relative="1" as="geometry" />
        </mxCell>
        <mxCell id="Vn8qk5GVmVZZWzT2wANc-55" style="edgeStyle=orthogonalEdgeStyle;rounded=0;orthogonalLoop=1;jettySize=auto;html=1;exitX=1;exitY=0.5;exitDx=0;exitDy=0;entryX=0;entryY=0.5;entryDx=0;entryDy=0;" edge="1" parent="WIyWlLk6GJQsqaUBKTNV-1" source="Vn8qk5GVmVZZWzT2wANc-49" target="Vn8qk5GVmVZZWzT2wANc-53">
          <mxGeometry relative="1" as="geometry" />
        </mxCell>
        <mxCell id="Vn8qk5GVmVZZWzT2wANc-80" value="" style="edgeStyle=orthogonalEdgeStyle;rounded=0;orthogonalLoop=1;jettySize=auto;html=1;" edge="1" parent="WIyWlLk6GJQsqaUBKTNV-1" source="Vn8qk5GVmVZZWzT2wANc-49" target="Vn8qk5GVmVZZWzT2wANc-79">
          <mxGeometry relative="1" as="geometry" />
        </mxCell>
        <mxCell id="Vn8qk5GVmVZZWzT2wANc-49" value="14(for)" style="ellipse;whiteSpace=wrap;html=1;" vertex="1" parent="WIyWlLk6GJQsqaUBKTNV-1">
          <mxGeometry x="402.5" y="950" width="67.5" height="45" as="geometry" />
        </mxCell>
        <mxCell id="Vn8qk5GVmVZZWzT2wANc-51" value="14(j++)" style="ellipse;whiteSpace=wrap;html=1;" vertex="1" parent="WIyWlLk6GJQsqaUBKTNV-1">
          <mxGeometry x="255" y="950" width="67.5" height="45" as="geometry" />
        </mxCell>
        <mxCell id="Vn8qk5GVmVZZWzT2wANc-57" value="" style="edgeStyle=orthogonalEdgeStyle;rounded=0;orthogonalLoop=1;jettySize=auto;html=1;" edge="1" parent="WIyWlLk6GJQsqaUBKTNV-1" source="Vn8qk5GVmVZZWzT2wANc-53" target="Vn8qk5GVmVZZWzT2wANc-56">
          <mxGeometry relative="1" as="geometry" />
        </mxCell>
        <mxCell id="Vn8qk5GVmVZZWzT2wANc-63" value="" style="edgeStyle=orthogonalEdgeStyle;rounded=0;orthogonalLoop=1;jettySize=auto;html=1;" edge="1" parent="WIyWlLk6GJQsqaUBKTNV-1" source="Vn8qk5GVmVZZWzT2wANc-53" target="Vn8qk5GVmVZZWzT2wANc-62">
          <mxGeometry relative="1" as="geometry" />
        </mxCell>
        <mxCell id="Vn8qk5GVmVZZWzT2wANc-53" value="20(if)" style="ellipse;whiteSpace=wrap;html=1;" vertex="1" parent="WIyWlLk6GJQsqaUBKTNV-1">
          <mxGeometry x="510" y="1000" width="67.5" height="45" as="geometry" />
        </mxCell>
        <mxCell id="Vn8qk5GVmVZZWzT2wANc-59" value="" style="edgeStyle=orthogonalEdgeStyle;rounded=0;orthogonalLoop=1;jettySize=auto;html=1;" edge="1" parent="WIyWlLk6GJQsqaUBKTNV-1" source="Vn8qk5GVmVZZWzT2wANc-56" target="Vn8qk5GVmVZZWzT2wANc-58">
          <mxGeometry relative="1" as="geometry" />
        </mxCell>
        <mxCell id="Vn8qk5GVmVZZWzT2wANc-56" value="23(else)" style="ellipse;whiteSpace=wrap;html=1;" vertex="1" parent="WIyWlLk6GJQsqaUBKTNV-1">
          <mxGeometry x="590" y="950" width="67.5" height="45" as="geometry" />
        </mxCell>
        <mxCell id="Vn8qk5GVmVZZWzT2wANc-61" value="" style="edgeStyle=orthogonalEdgeStyle;rounded=0;orthogonalLoop=1;jettySize=auto;html=1;" edge="1" parent="WIyWlLk6GJQsqaUBKTNV-1" source="Vn8qk5GVmVZZWzT2wANc-58" target="Vn8qk5GVmVZZWzT2wANc-60">
          <mxGeometry relative="1" as="geometry" />
        </mxCell>
        <mxCell id="Vn8qk5GVmVZZWzT2wANc-58" value="24" style="ellipse;whiteSpace=wrap;html=1;" vertex="1" parent="WIyWlLk6GJQsqaUBKTNV-1">
          <mxGeometry x="683.75" y="950" width="67.5" height="45" as="geometry" />
        </mxCell>
        <mxCell id="Vn8qk5GVmVZZWzT2wANc-68" style="edgeStyle=orthogonalEdgeStyle;rounded=0;orthogonalLoop=1;jettySize=auto;html=1;exitX=0.5;exitY=1;exitDx=0;exitDy=0;entryX=0.5;entryY=0;entryDx=0;entryDy=0;" edge="1" parent="WIyWlLk6GJQsqaUBKTNV-1" source="Vn8qk5GVmVZZWzT2wANc-60" target="Vn8qk5GVmVZZWzT2wANc-66">
          <mxGeometry relative="1" as="geometry" />
        </mxCell>
        <mxCell id="Vn8qk5GVmVZZWzT2wANc-60" value="25" style="ellipse;whiteSpace=wrap;html=1;" vertex="1" parent="WIyWlLk6GJQsqaUBKTNV-1">
          <mxGeometry x="770" y="950" width="67.5" height="45" as="geometry" />
        </mxCell>
        <mxCell id="Vn8qk5GVmVZZWzT2wANc-65" value="" style="edgeStyle=orthogonalEdgeStyle;rounded=0;orthogonalLoop=1;jettySize=auto;html=1;" edge="1" parent="WIyWlLk6GJQsqaUBKTNV-1" source="Vn8qk5GVmVZZWzT2wANc-62" target="Vn8qk5GVmVZZWzT2wANc-64">
          <mxGeometry relative="1" as="geometry" />
        </mxCell>
        <mxCell id="Vn8qk5GVmVZZWzT2wANc-62" value="21(true)" style="ellipse;whiteSpace=wrap;html=1;" vertex="1" parent="WIyWlLk6GJQsqaUBKTNV-1">
          <mxGeometry x="510" y="1080" width="67.5" height="45" as="geometry" />
        </mxCell>
        <mxCell id="Vn8qk5GVmVZZWzT2wANc-67" value="" style="edgeStyle=orthogonalEdgeStyle;rounded=0;orthogonalLoop=1;jettySize=auto;html=1;" edge="1" parent="WIyWlLk6GJQsqaUBKTNV-1" source="Vn8qk5GVmVZZWzT2wANc-64" target="Vn8qk5GVmVZZWzT2wANc-66">
          <mxGeometry relative="1" as="geometry" />
        </mxCell>
        <mxCell id="Vn8qk5GVmVZZWzT2wANc-64" value="22" style="ellipse;whiteSpace=wrap;html=1;" vertex="1" parent="WIyWlLk6GJQsqaUBKTNV-1">
          <mxGeometry x="600" y="1080" width="67.5" height="45" as="geometry" />
        </mxCell>
        <mxCell id="Vn8qk5GVmVZZWzT2wANc-70" value="" style="edgeStyle=orthogonalEdgeStyle;rounded=0;orthogonalLoop=1;jettySize=auto;html=1;" edge="1" parent="WIyWlLk6GJQsqaUBKTNV-1" source="Vn8qk5GVmVZZWzT2wANc-66" target="Vn8qk5GVmVZZWzT2wANc-69">
          <mxGeometry relative="1" as="geometry" />
        </mxCell>
        <mxCell id="Vn8qk5GVmVZZWzT2wANc-66" value="26" style="ellipse;whiteSpace=wrap;html=1;" vertex="1" parent="WIyWlLk6GJQsqaUBKTNV-1">
          <mxGeometry x="690" y="1080" width="67.5" height="45" as="geometry" />
        </mxCell>
        <mxCell id="Vn8qk5GVmVZZWzT2wANc-72" value="" style="edgeStyle=orthogonalEdgeStyle;rounded=0;orthogonalLoop=1;jettySize=auto;html=1;" edge="1" parent="WIyWlLk6GJQsqaUBKTNV-1" source="Vn8qk5GVmVZZWzT2wANc-69" target="Vn8qk5GVmVZZWzT2wANc-71">
          <mxGeometry relative="1" as="geometry" />
        </mxCell>
        <mxCell id="Vn8qk5GVmVZZWzT2wANc-77" value="" style="edgeStyle=orthogonalEdgeStyle;rounded=0;orthogonalLoop=1;jettySize=auto;html=1;" edge="1" parent="WIyWlLk6GJQsqaUBKTNV-1" source="Vn8qk5GVmVZZWzT2wANc-69" target="Vn8qk5GVmVZZWzT2wANc-76">
          <mxGeometry relative="1" as="geometry" />
        </mxCell>
        <mxCell id="Vn8qk5GVmVZZWzT2wANc-69" value="30&lt;div&gt;(if)&lt;/div&gt;" style="ellipse;whiteSpace=wrap;html=1;" vertex="1" parent="WIyWlLk6GJQsqaUBKTNV-1">
          <mxGeometry x="690" y="1160" width="67.5" height="45" as="geometry" />
        </mxCell>
        <mxCell id="Vn8qk5GVmVZZWzT2wANc-74" value="" style="edgeStyle=orthogonalEdgeStyle;rounded=0;orthogonalLoop=1;jettySize=auto;html=1;" edge="1" parent="WIyWlLk6GJQsqaUBKTNV-1" source="Vn8qk5GVmVZZWzT2wANc-71" target="Vn8qk5GVmVZZWzT2wANc-73">
          <mxGeometry relative="1" as="geometry" />
        </mxCell>
        <mxCell id="Vn8qk5GVmVZZWzT2wANc-71" value="32" style="ellipse;whiteSpace=wrap;html=1;" vertex="1" parent="WIyWlLk6GJQsqaUBKTNV-1">
          <mxGeometry x="837.5" y="1160" width="67.5" height="45" as="geometry" />
        </mxCell>
        <mxCell id="Vn8qk5GVmVZZWzT2wANc-75" style="edgeStyle=orthogonalEdgeStyle;rounded=0;orthogonalLoop=1;jettySize=auto;html=1;exitX=0.5;exitY=0;exitDx=0;exitDy=0;entryX=1;entryY=0.5;entryDx=0;entryDy=0;" edge="1" parent="WIyWlLk6GJQsqaUBKTNV-1" source="Vn8qk5GVmVZZWzT2wANc-73" target="Vn8qk5GVmVZZWzT2wANc-12">
          <mxGeometry relative="1" as="geometry" />
        </mxCell>
        <mxCell id="Vn8qk5GVmVZZWzT2wANc-73" value="33" style="ellipse;whiteSpace=wrap;html=1;" vertex="1" parent="WIyWlLk6GJQsqaUBKTNV-1">
          <mxGeometry x="837.5" y="850" width="67.5" height="45" as="geometry" />
        </mxCell>
        <mxCell id="Vn8qk5GVmVZZWzT2wANc-78" style="edgeStyle=orthogonalEdgeStyle;rounded=0;orthogonalLoop=1;jettySize=auto;html=1;" edge="1" parent="WIyWlLk6GJQsqaUBKTNV-1" source="Vn8qk5GVmVZZWzT2wANc-76">
          <mxGeometry relative="1" as="geometry">
            <mxPoint x="870" y="1210" as="targetPoint" />
          </mxGeometry>
        </mxCell>
        <mxCell id="Vn8qk5GVmVZZWzT2wANc-76" value="31" style="ellipse;whiteSpace=wrap;html=1;" vertex="1" parent="WIyWlLk6GJQsqaUBKTNV-1">
          <mxGeometry x="690" y="1240" width="67.5" height="45" as="geometry" />
        </mxCell>
        <mxCell id="Vn8qk5GVmVZZWzT2wANc-82" value="" style="edgeStyle=orthogonalEdgeStyle;rounded=0;orthogonalLoop=1;jettySize=auto;html=1;" edge="1" parent="WIyWlLk6GJQsqaUBKTNV-1" source="Vn8qk5GVmVZZWzT2wANc-79" target="Vn8qk5GVmVZZWzT2wANc-81">
          <mxGeometry relative="1" as="geometry" />
        </mxCell>
        <mxCell id="Vn8qk5GVmVZZWzT2wANc-88" value="" style="edgeStyle=orthogonalEdgeStyle;rounded=0;orthogonalLoop=1;jettySize=auto;html=1;" edge="1" parent="WIyWlLk6GJQsqaUBKTNV-1" source="Vn8qk5GVmVZZWzT2wANc-79" target="Vn8qk5GVmVZZWzT2wANc-87">
          <mxGeometry relative="1" as="geometry" />
        </mxCell>
        <mxCell id="Vn8qk5GVmVZZWzT2wANc-79" value="15 &amp;amp; 16&lt;div&gt;(if)&lt;/div&gt;" style="ellipse;whiteSpace=wrap;html=1;" vertex="1" parent="WIyWlLk6GJQsqaUBKTNV-1">
          <mxGeometry x="402.5" y="1040" width="67.5" height="45" as="geometry" />
        </mxCell>
        <mxCell id="Vn8qk5GVmVZZWzT2wANc-84" value="" style="edgeStyle=orthogonalEdgeStyle;rounded=0;orthogonalLoop=1;jettySize=auto;html=1;" edge="1" parent="WIyWlLk6GJQsqaUBKTNV-1" source="Vn8qk5GVmVZZWzT2wANc-81" target="Vn8qk5GVmVZZWzT2wANc-83">
          <mxGeometry relative="1" as="geometry" />
        </mxCell>
        <mxCell id="Vn8qk5GVmVZZWzT2wANc-81" value="18(true)" style="ellipse;whiteSpace=wrap;html=1;" vertex="1" parent="WIyWlLk6GJQsqaUBKTNV-1">
          <mxGeometry x="402.5" y="1115" width="67.5" height="45" as="geometry" />
        </mxCell>
        <mxCell id="Vn8qk5GVmVZZWzT2wANc-86" value="" style="edgeStyle=orthogonalEdgeStyle;rounded=0;orthogonalLoop=1;jettySize=auto;html=1;" edge="1" parent="WIyWlLk6GJQsqaUBKTNV-1" source="Vn8qk5GVmVZZWzT2wANc-83" target="Vn8qk5GVmVZZWzT2wANc-85">
          <mxGeometry relative="1" as="geometry" />
        </mxCell>
        <mxCell id="Vn8qk5GVmVZZWzT2wANc-83" value="19" style="ellipse;whiteSpace=wrap;html=1;" vertex="1" parent="WIyWlLk6GJQsqaUBKTNV-1">
          <mxGeometry x="402.5" y="1190" width="67.5" height="45" as="geometry" />
        </mxCell>
        <mxCell id="Vn8qk5GVmVZZWzT2wANc-85" value="19" style="ellipse;whiteSpace=wrap;html=1;" vertex="1" parent="WIyWlLk6GJQsqaUBKTNV-1">
          <mxGeometry x="402.5" y="1260" width="67.5" height="45" as="geometry" />
        </mxCell>
        <mxCell id="Vn8qk5GVmVZZWzT2wANc-90" style="edgeStyle=orthogonalEdgeStyle;rounded=0;orthogonalLoop=1;jettySize=auto;html=1;exitX=0;exitY=0.5;exitDx=0;exitDy=0;" edge="1" parent="WIyWlLk6GJQsqaUBKTNV-1">
          <mxGeometry relative="1" as="geometry">
            <mxPoint x="80" y="700" as="targetPoint" />
            <mxPoint x="275" y="1062.5" as="sourcePoint" />
          </mxGeometry>
        </mxCell>
        <mxCell id="Vn8qk5GVmVZZWzT2wANc-87" value="17&lt;div&gt;(false)&lt;/div&gt;" style="ellipse;whiteSpace=wrap;html=1;" vertex="1" parent="WIyWlLk6GJQsqaUBKTNV-1">
          <mxGeometry x="295" y="1040" width="67.5" height="45" as="geometry" />
        </mxCell>
        <mxCell id="Vn8qk5GVmVZZWzT2wANc-89" style="edgeStyle=orthogonalEdgeStyle;rounded=0;orthogonalLoop=1;jettySize=auto;html=1;exitX=0;exitY=0.5;exitDx=0;exitDy=0;entryX=0.37;entryY=0.889;entryDx=0;entryDy=0;entryPerimeter=0;" edge="1" parent="WIyWlLk6GJQsqaUBKTNV-1" source="Vn8qk5GVmVZZWzT2wANc-85" target="Vn8qk5GVmVZZWzT2wANc-51">
          <mxGeometry relative="1" as="geometry" />
        </mxCell>
      </root>
    </mxGraphModel>
  </diagram>
</mxfile>
